<svg xmlns="http://www.w3.org/2000/svg" viewBox="0 0 512 512" role="img" aria-label="Tap Repeater icon">
  <rect width="512" height="512" rx="112" fill="#0071ce"/>
  <circle cx="256" cy="256" r="154" fill="#ffffff" opacity="0.14"/>
  <path d="M165 271c0-55 45-100 100-100 47 0 87 33 97 77h-39l64 64 64-64h-39c-11-72-73-127-147-127-83 0-150 67-150 150 0 35 12 67 32 93l42-42c-15-14-24-32-24-51Z" fill="#ffc220"/>
  <path d="M347 241c0 55-45 100-100 100-47 0-87-33-97-77h39l-64-64-64 64h39c11 72 73 127 147 127 83 0 150-67 150-150 0-35-12-67-32-93l-42 42c15 14 24 32 24 51Z" fill="#ffffff"/>
</svg>
